<?xml version="1.0" encoding="UTF-8"?><svg width="16" height="32" viewBox="0 0 16 32" xmlns="http://www.w3.org/2000/svg"><title>textmode.js sketch</title><g id="ascii-cells"><path d="M12.00,15.60L12.00,11.60L10.00,11.60L10.00,15.60L4.00,15.60L4.00,13.60L0.00,13.60L0.00,7.60L2.00,7.60L2.00,11.60L6.00,11.60L6.00,7.60L12.00,7.60L12.00,9.60L14.00,9.60L14.00,11.60L16.00,11.60L16.00,15.60ZM4.00,5.60L4.00,3.60L6.00,3.60L6.00,1.60L12.00,1.60L12.00,5.60Z" fill="#a8b1ff"/><path d="M12.00,17.60L12.00,19.60L10.00,19.60L10.00,23.60L16.00,23.60L16.00,29.60L14.00,29.60L14.00,27.60L12.00,27.60L12.00,25.60L8.00,25.60L8.00,23.60L6.00,23.60L6.00,21.60L4.00,21.60L4.00,27.60L0.00,27.60L0.00,17.60L4.00,17.60L4.00,15.60L14.00,15.60L14.00,17.60Z" fill="#a8b1ff"/></g></svg>