<?xml version="1.0" encoding="UTF-8"?><svg width="128" height="128" viewBox="0 0 128 128" xmlns="http://www.w3.org/2000/svg"><title>textmode.js sketch</title><g id="ascii-cells"><path d="M48.00,-3.20L48.00,12.80L32.00,12.80L32.00,28.80L16.00,28.80L16.00,44.80L0.00,44.80L0.00,-3.20ZM16.00,76.80L16.00,92.80L32.00,92.80L32.00,108.80L48.00,108.80L48.00,124.80L0.00,124.80L0.00,76.80ZM80.00,108.80L96.00,108.80L96.00,92.80L112.00,92.80L112.00,76.80L128.00,76.80L128.00,124.80L80.00,124.80ZM112.00,28.80L96.00,28.80L96.00,12.80L80.00,12.80L80.00,-3.20L128.00,-3.20L128.00,44.80L112.00,44.80ZM48.00,44.80L48.00,28.80L80.00,28.80L80.00,44.80L96.00,44.80L96.00,76.80L80.00,76.80L80.00,92.80L48.00,92.80L48.00,76.80L32.00,76.80L32.00,44.80Z" fill="#a8b1ff"/></g></svg>