<?xml version="1.0" encoding="UTF-8"?><svg width="16" height="16" viewBox="0 0 16 16" xmlns="http://www.w3.org/2000/svg"><title>textmode.js sketch</title><g id="ascii-cells"><path d="M0.00,7.60L6.00,7.60L6.00,-0.40L10.00,-0.40L10.00,1.60L8.00,1.60L8.00,5.60L10.00,5.60L10.00,7.60L16.00,7.60L16.00,15.60L14.00,15.60L14.00,13.60L12.00,13.60L12.00,11.60L14.00,11.60L14.00,9.60L2.00,9.60L2.00,11.60L0.00,11.60ZM2.00,11.60L4.00,11.60L4.00,13.60L2.00,13.60ZM12.00,15.60L4.00,15.60L4.00,13.60L12.00,13.60ZM10.00,1.60L12.00,1.60L12.00,3.60L14.00,3.60L14.00,5.60L10.00,5.60Z" fill="#a8b1ff"/></g></svg>