<?xml version="1.0" encoding="UTF-8"?><svg width="128" height="128" viewBox="0 0 128 128" xmlns="http://www.w3.org/2000/svg"><title>textmode.js sketch</title><g id="ascii-cells"><path d="M16.00,12.80L48.00,12.80L48.00,28.80L64.00,28.80L64.00,44.80L80.00,44.80L80.00,76.80L112.00,76.80L112.00,44.80L80.00,44.80L80.00,12.80L112.00,12.80L112.00,28.80L128.00,28.80L128.00,92.80L112.00,92.80L112.00,108.80L80.00,108.80L80.00,92.80L64.00,92.80L64.00,76.80L48.00,76.80L48.00,44.80L16.00,44.80L16.00,76.80L48.00,76.80L48.00,108.80L16.00,108.80L16.00,92.80L0.00,92.80L0.00,28.80L16.00,28.80Z" fill="#a8b1ff"/></g></svg>